<svg width="256" height="76" viewBox="0 0 256 76" fill="none" xmlns="http://www.w3.org/2000/svg">
<path d="M-0.00340271 28.0238L48.5352 0L47.2491 19.945L5.91125 43.8114L-0.00340271 28.0238Z" fill="#444CE7"/>
<path opacity="0.5" d="M5.91104 43.8103L40.0481 24.1012L38.762 44.0462L11.8257 59.5979L5.91104 43.8103Z" fill="#444CE7"/>
<path opacity="0.25" d="M11.8221 59.5989L31.5576 48.2046L30.2715 68.1495L17.7367 75.3865L11.8221 59.5989Z" fill="#444CE7"/>
<path d="M64.3926 51.8282V20.9151H86.7824V26.8094H71.347V34.315H85.0862V39.9125H71.347V51.8282H64.3926Z" fill="#0C111D"/>
<path d="M98.8708 52.2523C95.1674 52.2523 92.4111 51.1922 90.6019 49.0719C88.7926 46.9517 87.8879 44.1247 87.8879 40.5909V40.4637C87.8879 36.4494 88.8915 33.4811 90.8987 31.5587C92.9059 29.6081 95.5632 28.6328 98.8708 28.6328C102.207 28.6328 104.878 29.6081 106.885 31.5587C108.921 33.4811 109.938 36.4494 109.938 40.4637V40.5909C109.91 44.1247 108.991 46.9517 107.182 49.0719C105.373 51.1922 102.602 52.2523 98.8708 52.2523ZM98.8708 46.9941C100.313 46.9941 101.401 46.5983 102.136 45.8068C102.899 45.0152 103.281 43.9268 103.281 42.5416V38.4707C103.281 37.0572 102.885 35.9547 102.094 35.1631C101.33 34.3433 100.256 33.9334 98.8708 33.9334C97.5139 33.9334 96.4396 34.3433 95.648 35.1631C94.8847 35.9547 94.5031 37.0572 94.5031 38.4707V42.5416C94.5031 43.9268 94.8706 45.0152 95.6056 45.8068C96.3689 46.5983 97.4573 46.9941 98.8708 46.9941Z" fill="#0C111D"/>
<path d="M113.495 51.8282V34.103C113.495 32.5481 113.961 31.3184 114.894 30.4138C115.827 29.5091 117.043 29.0568 118.541 29.0568H127.828V34.315H120.025V51.8282H113.495Z" fill="#0C111D"/>
<path d="M140.622 52.2523C138.106 52.2523 136 51.7717 134.303 50.8105C132.635 49.8211 131.392 48.45 130.572 46.6973C129.752 44.9162 129.342 42.8525 129.342 40.5061V40.1245C129.342 37.665 129.794 35.5872 130.699 33.891C131.604 32.1665 132.862 30.8661 134.473 29.9897C136.113 29.0851 137.993 28.6328 140.113 28.6328C142.431 28.6328 144.396 29.0709 146.007 29.9473C147.647 30.8237 148.891 32.0534 149.739 33.6365C150.587 35.2197 151.011 37.0713 151.011 39.1916V42.0751H135.957V43.2625C135.957 44.4781 136.367 45.4534 137.187 46.1884C138.035 46.9234 139.109 47.2909 140.41 47.2909C141.569 47.2909 142.516 47.0365 143.251 46.5276C144.014 46.0188 144.466 45.3403 144.608 44.4922H150.757C150.672 46.047 150.191 47.404 149.315 48.5631C148.438 49.7221 147.251 50.6268 145.753 51.277C144.254 51.9272 142.544 52.2523 140.622 52.2523ZM135.957 37.8346V38.0467H144.608V37.8346C144.608 36.3081 144.212 35.2055 143.42 34.527C142.629 33.8203 141.597 33.4669 140.325 33.4669C138.968 33.4669 137.894 33.8486 137.102 34.6119C136.339 35.3469 135.957 36.4211 135.957 37.8346Z" fill="#0C111D"/>
<path d="M162.93 52.2523C159.679 52.2523 157.191 51.5455 155.467 50.1321C153.771 48.7186 152.937 46.881 152.965 44.6194H159.198C159.255 45.7502 159.637 46.5559 160.343 47.0365C161.078 47.5171 162.011 47.7574 163.142 47.7574C164.273 47.7574 165.079 47.5454 165.559 47.1213C166.068 46.669 166.322 46.1319 166.322 45.5099C166.322 44.5205 165.969 43.8703 165.262 43.5593C164.556 43.2201 163.453 42.9374 161.955 42.7112C160.598 42.5133 159.269 42.2023 157.969 41.7783C156.668 41.3542 155.594 40.6899 154.746 39.7853C153.926 38.8523 153.516 37.5802 153.516 35.9688C153.516 34.3857 153.912 33.057 154.703 31.9828C155.523 30.8802 156.64 30.0463 158.053 29.4809C159.467 28.9155 161.092 28.6328 162.93 28.6328C165.729 28.6328 167.99 29.2547 169.715 30.4986C171.468 31.7425 172.372 33.4952 172.429 35.7568L166.28 35.7144C166.28 34.838 165.969 34.1737 165.347 33.7214C164.753 33.2408 163.948 33.0005 162.93 33.0005C161.941 33.0005 161.191 33.1984 160.683 33.5941C160.174 33.9899 159.919 34.5129 159.919 35.1631C159.919 36.0678 160.329 36.6614 161.149 36.9441C161.997 37.2268 163.057 37.4671 164.329 37.665C165.404 37.8064 166.45 38.0042 167.467 38.2587C168.485 38.4848 169.404 38.8523 170.224 39.3612C171.072 39.8701 171.736 40.5768 172.217 41.4814C172.697 42.3578 172.938 43.5169 172.938 44.9587C172.938 47.192 172.061 48.973 170.308 50.3017C168.584 51.6021 166.125 52.2523 162.93 52.2523Z" fill="#0C111D"/>
<path d="M176.711 51.8282V29.0568H183.242V51.8282H176.711ZM176.711 26.1733V20.9151H183.242V26.1733H176.711Z" fill="#0C111D"/>
<path d="M197.318 59.3339C194.349 59.3339 192.003 58.6978 190.279 57.4257C188.582 56.1818 187.664 54.528 187.522 52.4643H193.798C193.94 53.1993 194.364 53.7647 195.07 54.1605C195.805 54.5846 196.724 54.7966 197.827 54.7966C199.523 54.7966 200.724 54.4149 201.431 53.6517C202.166 52.8884 202.534 51.8141 202.534 50.4289V46.4852H202.237C201.671 47.7574 200.781 48.7327 199.565 49.4112C198.35 50.0614 196.993 50.3865 195.494 50.3865C192.583 50.3865 190.406 49.4112 188.964 47.4605C187.551 45.5099 186.844 42.9091 186.844 39.658V39.4884C186.844 35.8981 187.607 33.1984 189.134 31.3891C190.66 29.5515 192.795 28.6328 195.537 28.6328C197.318 28.6328 198.745 28.972 199.82 29.6505C200.894 30.329 201.7 31.2053 202.237 32.2796H202.576L202.915 29.0568H209.064V49.6656C209.064 53.0015 208.06 55.4468 206.053 57.0016C204.074 58.5565 201.162 59.3339 197.318 59.3339ZM198.166 45.2131C199.551 45.2131 200.625 44.8032 201.389 43.9833C202.152 43.1352 202.534 42.0468 202.534 40.7182V38.3435C202.534 36.93 202.138 35.8275 201.346 35.0359C200.555 34.2161 199.495 33.8062 198.166 33.8062C196.781 33.8062 195.706 34.2019 194.943 34.9935C194.208 35.7851 193.841 36.8735 193.841 38.2587V40.8878C193.841 42.2447 194.236 43.3049 195.028 44.0681C195.819 44.8314 196.865 45.2131 198.166 45.2131Z" fill="#0C111D"/>
<path d="M214.024 51.8282V20.9151H220.555V32.7884H220.936C221.417 31.5446 222.251 30.541 223.438 29.7777C224.626 29.0144 226.039 28.6328 227.679 28.6328C230.11 28.6328 232.032 29.3678 233.446 30.8378C234.859 32.3079 235.566 34.6543 235.566 37.877V51.8282H229.078V38.6827C229.078 36.8452 228.711 35.5872 227.976 34.9087C227.241 34.2302 226.251 33.891 225.007 33.891C223.537 33.891 222.421 34.3716 221.657 35.3327C220.922 36.2939 220.555 37.5802 220.555 39.1916V51.8282H214.024Z" fill="#0C111D"/>
<path d="M248.19 51.8282C246.38 51.8282 245.08 51.3618 244.288 50.4289C243.525 49.496 243.144 48.2804 243.144 46.7821V34.315H238.225V29.0568H243.144V21.9328H249.674V29.0568H255.271V34.315H249.674V46.7397H255.017V51.8282H248.19Z" fill="#0C111D"/>
</svg>
