<?xml version="1.0" encoding="UTF-8"?>
<svg version="1.1" xmlns="http://www.w3.org/2000/svg" width="512" height="512">
<path d="M0 0 C0.55413574 0.49757812 1.10827148 0.99515625 1.67919922 1.5078125 C23.47293094 21.43046612 38.45401639 49.41049629 41.15869141 78.90527344 C41.62480126 88.44144373 41.62480126 88.44144373 45.51513672 96.81347656 C49.27613428 99.59723874 53.4945186 100.9249056 57.93115234 102.27197266 C68.39591963 105.95452353 77.1341653 115.42549251 85 123 C85.94939453 123.85464844 85.94939453 123.85464844 86.91796875 124.7265625 C101.81316278 138.52496077 111.29918885 157.81012669 117 177 C117.21172852 177.68916504 117.42345703 178.37833008 117.64160156 179.08837891 C126.99657119 210.77815318 120.90841222 245.73157291 105.96875 274.5625 C88.83111777 304.48534993 60.72222841 326.40737301 27.48901367 335.50512695 C25.33462285 336.05457753 23.17329213 336.53070795 21 337 C19.85606781 337.25773445 19.85606781 337.25773445 18.68902588 337.52067566 C8.4316172 339.53974171 -1.8605597 339.32822573 -12.26953125 339.3359375 C-14.32069489 339.34237554 -16.37185763 339.34910462 -18.42301941 339.35610962 C-22.70024752 339.36802236 -26.97739517 339.37179611 -31.25463867 339.37060547 C-36.72655235 339.37040136 -42.19795204 339.39782495 -47.66974354 339.43214989 C-51.89658472 339.45440135 -56.12330117 339.45844372 -60.35019493 339.45738602 C-62.36796546 339.45973992 -64.38573954 339.46855154 -66.40345192 339.48405075 C-69.22221697 339.50369719 -72.03985857 339.49788047 -74.85864258 339.48583984 C-75.68424179 339.49707886 -76.509841 339.50831787 -77.36045837 339.51989746 C-83.03563278 339.45845052 -86.33576519 338.27744055 -91 335 C-94.76544339 330.17250848 -95.59765651 326.45560471 -95.3203125 320.36328125 C-94.69308935 315.73559823 -92.99153364 312.96473543 -89.6875 309.75 C-84.18222691 306.16517101 -78.94246765 305.71038428 -72.51049805 305.74462891 C-71.26267296 305.73919823 -71.26267296 305.73919823 -69.98963928 305.73365784 C-68.18909994 305.72678507 -66.38853985 305.72425441 -64.5879879 305.72560501 C-61.72207677 305.72657593 -58.856535 305.71355681 -55.99067688 305.69662476 C-47.8439935 305.65055468 -39.69734635 305.62580196 -31.55053711 305.61914062 C-26.557287 305.61407496 -21.56441855 305.58956424 -16.5712986 305.55381393 C-14.68464278 305.54412379 -12.79793369 305.54162387 -10.9112606 305.54698563 C16.82722136 305.622047 40.93693271 297.51185581 61.18359375 277.90625 C79.79307583 259.13911389 87.29925933 235.39210788 87.31469727 209.50268555 C87.03329369 184.49439977 76.19991675 161.97405539 58.49609375 144.42285156 C48.02569592 134.46503848 35.61829621 127.36299076 21.875 122.9375 C16.06193585 120.98522093 12.71584851 117.43169701 10 112 C9.88295322 110.5329291 9.8212448 109.06122449 9.7890625 107.58984375 C9.76287842 106.69056152 9.73669434 105.7912793 9.7097168 104.86474609 C9.68176025 103.89875488 9.65380371 102.93276367 9.625 101.9375 C8.4962701 72.26181336 -0.94664259 45.8605592 -22.671875 25.046875 C-48.53629737 2.30701372 -80.25514463 -5.00275637 -114 -3 C-149.88013433 0.07599632 -184.46214604 19.29223836 -207.75 46.375 C-212.86835732 52.50815721 -217.11034384 59.01794639 -221 66 C-221.63292969 67.10730469 -222.26585937 68.21460938 -222.91796875 69.35546875 C-226.43131752 75.78428063 -229.17847898 82.29911077 -231.48046875 89.2578125 C-231.69455383 89.90135681 -231.90863892 90.54490112 -232.12921143 91.20794678 C-233.20188215 94.45252664 -234.24104361 97.70336694 -235.23583984 100.97265625 C-237.60439232 108.35505516 -239.4593658 112.67039291 -246 117 C-248.35483275 118.17741637 -249.88888715 118.16963931 -252.515625 118.24609375 C-253.43005371 118.27735352 -254.34448242 118.30861328 -255.28662109 118.34082031 C-256.26453613 118.37272461 -257.24245117 118.40462891 -258.25 118.4375 C-288.05001121 119.65735541 -313.09257705 127.89827879 -334.3359375 149.9375 C-352.96987346 170.76606924 -358.30402747 195.5675662 -357.21582031 222.87060547 C-356.75243197 229.58973638 -355.25573622 235.65297749 -353 242 C-352.62617188 243.05832031 -352.25234375 244.11664063 -351.8671875 245.20703125 C-347.43307569 256.64469053 -341.05686128 266.78320149 -333 276 C-332.41992188 276.67546875 -331.83984375 277.3509375 -331.2421875 278.046875 C-316.64371298 293.84608985 -293.51834586 304.14371989 -272.15109253 305.36355591 C-267.81727982 305.51701039 -263.48604231 305.53605477 -259.14986992 305.51642036 C-256.29376984 305.50355802 -253.43860363 305.51528409 -250.58253479 305.53245544 C-245.55681602 305.55888234 -240.53133493 305.56476078 -235.5055542 305.56335449 C-227.43326125 305.56110626 -219.36125874 305.57538826 -211.28907967 305.61894035 C-208.48833141 305.62871521 -205.68805181 305.62010225 -202.88731384 305.61024475 C-201.16372374 305.61639029 -199.44013614 305.62330247 -197.71655273 305.63110352 C-196.94915771 305.62338425 -196.1817627 305.61566498 -195.39111328 305.60771179 C-189.70226176 305.66059908 -183.80155689 306.46789974 -179.43273067 310.41652775 C-175.25750462 315.24152162 -174.63690619 319.27926487 -174.7265625 325.4296875 C-175.17370143 329.63279344 -176.38102308 331.64233729 -179 335 C-184.4815471 338.8437939 -188.4572357 339.57979549 -195.06201172 339.50170898 C-195.94280899 339.50711197 -196.82360626 339.51251495 -197.73109436 339.51808167 C-200.6309721 339.53054272 -203.5298509 339.51408174 -206.4296875 339.49609375 C-208.46404065 339.49624894 -210.49839409 339.49774117 -212.53274536 339.50050354 C-216.79800485 339.50188685 -221.06292787 339.48935157 -225.328125 339.46655273 C-230.74871483 339.43834945 -236.16873831 339.44085709 -241.58936882 339.45364285 C-245.79520342 339.46066401 -250.00091147 339.4527351 -254.20672989 339.44038582 C-256.20225664 339.43592067 -258.19779723 339.43549046 -260.19332504 339.43945122 C-275.43538543 339.45552681 -290.34622991 338.47307071 -304.875 333.4375 C-305.96663452 333.0650415 -305.96663452 333.0650415 -307.08032227 332.68505859 C-340.10138956 320.83928299 -366.23799606 295.85650201 -381.14453125 264.3515625 C-388.42322171 247.99435993 -391.40039671 230.81302998 -391.375 213 C-391.37412384 212.32191284 -391.37324768 211.64382568 -391.37234497 210.94519043 C-391.22576029 176.39178193 -377.86125387 145.88837859 -353.75 121.3125 C-329.54618143 97.35485286 -298.71894023 86.19687793 -265 85 C-264.89695557 84.45545166 -264.79391113 83.91090332 -264.68774414 83.34985352 C-263.51237391 77.57912502 -261.75917465 72.34189617 -259.4375 66.9375 C-259.08743896 66.11822021 -258.73737793 65.29894043 -258.37670898 64.45483398 C-250.18878826 45.71447904 -238.53908999 30.21371506 -225 15 C-224.39671875 14.32195312 -223.7934375 13.64390625 -223.171875 12.9453125 C-198.95918603 -12.61252586 -163.96121569 -28.27536284 -130 -35 C-128.80117188 -35.24621094 -127.60234375 -35.49242187 -126.3671875 -35.74609375 C-81.35118973 -43.31839036 -33.9155727 -30.46606368 0 0 Z " fill="#000000" transform="translate(391,85)"/>
<path d="M0 0 C9.45622073 7.76550351 17.05275461 18.62810118 24.7265625 28.078125 C27.28595088 31.19943741 29.89003812 34.27979921 32.50390625 37.35546875 C55.50524551 64.45447179 55.50524551 64.45447179 55.25 73.61328125 C54.71391337 78.49762614 52.5681336 81.55554503 48.94140625 84.66796875 C45.32424109 87.36160238 43.67674889 88.02505343 39.25390625 88.10546875 C38.4134375 88.13125 37.57296875 88.15703125 36.70703125 88.18359375 C30.40147147 87.41817898 26.77584161 83.95424042 22.69140625 79.35546875 C21.82902344 78.39640625 20.96664062 77.43734375 20.078125 76.44921875 C17.42600681 73.3946283 14.87029954 70.2640279 12.31176758 67.13085938 C11.5041951 66.14234985 10.69662262 65.15384033 9.86457825 64.13537598 C9.25055649 63.38300659 8.63653473 62.63063721 8.00390625 61.85546875 C8.00336148 62.64784471 8.00281672 63.44022066 8.00225544 64.25660801 C7.98728225 83.54494677 7.94481364 102.83304606 7.87181568 122.12125492 C7.83717589 131.44894585 7.81181149 140.77648914 7.80834961 150.10424805 C7.80530831 158.23520063 7.78479555 166.36589022 7.74338168 174.49674124 C7.72206496 178.80126443 7.70944416 183.10541388 7.71775246 187.40999031 C7.72530114 191.46412242 7.70943742 195.51749775 7.6758461 199.57149124 C7.66762256 201.05691867 7.66785151 202.54242149 7.67730904 204.02784157 C7.75732943 217.98072526 7.75732943 217.98072526 2.00390625 223.85546875 C-2.27846569 226.94276015 -6.30209571 227.43683973 -11.4609375 227.2734375 C-16.61383578 226.42388416 -20.540825 223.87481337 -23.57688618 219.6619463 C-25.2661839 216.3213665 -25.37970648 214.10312458 -25.39482117 210.36979675 C-25.40735931 209.05872955 -25.41989746 207.74766235 -25.43281555 206.39686584 C-25.43164159 204.95101904 -25.43018247 203.50517244 -25.4284668 202.05932617 C-25.43748626 200.53150643 -25.44781394 199.00369393 -25.45935059 197.47589111 C-25.48692523 193.33373819 -25.49620571 189.19172255 -25.50220466 185.04948974 C-25.51158712 180.71859152 -25.53779041 176.38779589 -25.56221008 172.05696106 C-25.60588228 163.85835149 -25.63442482 155.65976182 -25.65753347 147.46107131 C-25.68458127 138.12612838 -25.72849304 128.79128862 -25.77382219 119.45641935 C-25.86667879 100.25615694 -25.93835488 81.05586726 -25.99609375 61.85546875 C-28.07998895 64.25602326 -30.16310796 66.65725012 -32.24609375 69.05859375 C-32.83261719 69.73422363 -33.41914063 70.40985352 -34.0234375 71.10595703 C-37.04032324 74.58469746 -40.03564381 78.07841729 -42.99609375 81.60546875 C-46.22181695 85.20700436 -48.53984849 87.55739905 -53.5390625 88.1640625 C-59.54258521 88.43142586 -63.36993123 88.03029834 -67.99609375 83.85546875 C-71.54508909 79.92279824 -73.13273388 76.89977654 -73.30859375 71.60546875 C-73.34597656 70.8784375 -73.38335937 70.15140625 -73.421875 69.40234375 C-72.33397255 62.89489054 -67.55649132 57.88036368 -63.30859375 53.10546875 C-62.23207382 51.87326798 -61.15656166 50.64018609 -60.08203125 49.40625 C-59.55577148 48.80377441 -59.02951172 48.20129883 -58.48730469 47.58056641 C-56.42096855 45.19013891 -54.42397539 42.74681471 -52.43359375 40.29296875 C-48.71089661 35.70859849 -44.91193659 31.19591427 -41.08618164 26.69775391 C-38.13638067 23.22284396 -35.23937723 19.71084852 -32.37109375 16.16796875 C-30.91658752 14.39399061 -29.45826751 12.62313238 -27.99609375 10.85546875 C-27.23296875 9.93121094 -26.46984375 9.00695312 -25.68359375 8.0546875 C-18.83102239 0.05616249 -10.62224082 -6.09063906 0 0 Z " fill="#000000" transform="translate(264.99609375,237.14453125)"/>
</svg>
